<svg xmlns="http://www.w3.org/2000/svg" preserveAspectRatio="none" viewBox="0 0 168 58" fill="none">
    <path d="M40.7441 50.0277C39.9433 49.1784 41.7452 48.2044 42.8179 48.9071C43.7153 49.4949 43.1532 50.5815 41.9527 50.5815C41.5753 50.5815 41.0315 50.3327 40.7441 50.0277ZM120.292 42.9451C119.777 42.3995 121.782 41.276 122.468 41.7255C122.749 41.9096 122.98 42.2273 122.98 42.4307C122.98 43.0016 120.748 43.429 120.292 42.9451ZM53.0913 47.4011C53.0913 47.2609 53.2658 47.1466 53.4798 47.1466C53.6938 47.1466 53.8683 47.2615 53.8683 47.4011C53.8683 47.5412 53.6938 47.6556 53.4798 47.6556C53.2658 47.6556 53.0913 47.5406 53.0913 47.4011ZM13.9579 46.5066C13.9579 46.2262 14.2876 45.997 14.6899 45.997C15.0922 45.997 15.6379 46.2262 15.9022 46.5066C16.1668 46.7869 15.838 47.0162 15.1702 47.0162C14.5034 47.0162 13.9579 46.7869 13.9579 46.5066ZM56.9798 44.6677C56.9798 44.3873 57.3086 44.1581 57.7118 44.1581C58.1141 44.1581 58.6599 44.3873 58.9242 44.6677C59.1887 44.948 58.8599 45.1773 58.1922 45.1773C57.5254 45.1773 56.9798 44.948 56.9798 44.6677ZM24.0671 44.9784C24.0671 44.698 24.417 44.4688 24.845 44.4688C25.273 44.4688 25.6229 44.698 25.6229 44.9784C25.6229 45.2588 25.273 45.488 24.845 45.488C24.417 45.488 24.0671 45.2588 24.0671 44.9784ZM43.101 44.6677C41.7542 43.7493 42.4438 42.292 42.6601 40.8057C42.8763 39.3193 39.7192 40.8814 37.6391 40.9699C35.5591 41.0585 34.4081 41.681 32.6737 41.0663C30.9391 40.4516 29.5529 40.2293 28.9757 38.9825C28.3984 37.7358 24.4546 40.2778 26.5265 39.4944C28.5984 38.711 29.3958 41.1372 26.9552 41.2564C24.5147 41.3756 25.01 41.6723 22.795 41.9117C20.58 42.1509 22.8284 40.6831 22.7031 39.1843C22.5778 37.6854 18.5299 38.4932 18.3743 37.2152C18.2186 35.9373 20.4937 34.9684 22.6818 34.6215C24.8699 34.2745 20.4636 34.5949 20.185 33.2256C19.9064 31.8563 16.391 32.3914 15.1537 31.4742C13.9164 30.5569 15.5196 29.1838 13.6296 29.312C11.7396 29.4401 15.9378 27.75 14.2086 27.4114C12.4794 27.0729 9.84862 27.8925 7.95322 27.5855C6.05782 27.2786 5.43802 26.4101 7.78672 25.8872C10.1354 25.3643 9.12403 24.6047 10.6805 23.7259C12.237 22.8471 14.3825 22.5204 15.2425 21.2319C16.1026 19.9435 18.0357 19.7851 16.727 19.376C15.4183 18.9669 20.6057 19.2178 20.719 17.7249C20.8323 16.232 18.3385 15.8121 16.9146 14.8484C15.4907 13.8848 12.3396 14.8293 13.5501 13.6499C14.7605 12.4704 11.593 13.1325 10.1402 12.2887C8.68742 11.4449 7.81392 10.018 9.52102 10.4793C11.2281 10.9405 11.7742 10.6573 13.009 11.8229C14.2438 12.9885 15.3844 10.7516 17.3064 11.2601C19.2284 11.7686 20.3558 12.9657 22.315 12.8895C24.2742 12.8133 23.6849 12.9363 26.0123 12.8947C28.3396 12.8532 24.7927 10.8349 25.3026 12.1493C25.8125 13.4635 23.1237 10.024 21.067 10.1596C19.0102 10.2951 21.1791 12.8673 19.9109 11.9332C18.6428 10.9992 18.521 9.45614 17.5281 8.79344C16.5352 8.13074 19.8974 7.00504 21.8746 6.45104C23.8518 5.89714 23.7609 7.70584 25.752 7.77104C27.7431 7.83614 30.7608 7.87144 31.036 6.45734C31.3112 5.04334 33.0906 3.98804 35.1047 3.70344C37.1187 3.41884 37.3974 5.12094 39.2394 5.77324C41.0814 6.42554 42.41 7.81794 41.6299 8.99944C40.8498 10.181 40.411 10.8705 42.5805 10.8507C44.7501 10.831 44.7908 9.54744 46.831 9.79524C48.8713 10.0429 50.9012 10.0603 52.975 10.0637C55.0488 10.0672 57.3891 10.3548 59.1009 9.87224C60.8127 9.38964 63.2181 9.99714 65.1881 9.38354C67.1581 8.76994 62.0548 7.85784 61.1627 7.47384C60.2706 7.08984 65.7404 8.19424 66.4699 7.18084C67.1993 6.16744 68.5924 4.38124 69.6939 5.37664C70.7956 6.37204 73.226 6.09084 75.2975 6.36374C77.369 6.63664 79.3842 6.62254 81.3179 6.14964C83.2516 5.67674 85.0975 5.15124 87.1397 5.09024C89.1818 5.02924 89.1601 5.60604 91.4846 5.62774C93.8092 5.64944 98.0118 5.77254 95.9718 6.21024C93.9318 6.64794 97.8148 6.71914 97.5738 7.97444C97.3328 9.22984 99.7092 8.35094 101.813 8.30194C103.917 8.25304 105.963 7.03724 107.51 7.33274C109.058 7.62824 111.183 10.5781 111.749 9.23194C112.314 7.88574 113.538 6.41674 115.675 6.94574C117.812 7.47474 116.556 9.40944 114.543 9.13084C112.529 8.85234 116.053 9.93784 118.023 10.2986C119.994 10.6595 121.808 9.99154 123.887 9.90624C125.966 9.82094 128 10.0494 130.073 9.81454C132.146 9.57954 130.226 8.03834 132.355 8.43784C134.483 8.83734 136.134 9.57114 138.208 9.74074C140.283 9.91034 139.749 9.59794 137.85 9.02934C135.95 8.46094 134.981 6.76124 136.191 5.63584C137.402 4.51044 139.927 4.57754 141.263 3.54544C142.598 2.51324 145.83 1.48834 145.986 2.91734C146.143 4.34634 140.546 3.91634 142.538 4.46814C144.531 5.01994 145.55 6.48094 147.467 6.73754C149.383 6.99414 149.94 5.52344 152.22 5.46474C154.501 5.40604 156.469 5.85294 158.056 6.70234C159.644 7.55184 155.621 8.49284 154.173 9.38714C152.725 10.2814 151.374 8.84084 150.407 10.3253C149.44 11.8098 154.765 11.9433 155.073 10.7126C155.382 9.48204 158.427 9.09064 160.192 8.97924C161.957 8.86784 165.826 11.0149 164.279 11.2537C162.732 11.4926 164.292 11.7643 162.582 12.3297C160.871 12.8952 156.582 13.5652 159.134 13.3108C161.685 13.0565 162.927 14.2066 164.892 13.4286C166.857 12.6507 167.852 13.0132 166.126 13.8193C164.401 14.6255 162.599 15.0908 160.496 14.8041C158.392 14.5174 159.905 16.4927 157.894 16.7242C155.884 16.9557 159.156 17.7875 158.934 19.1598C158.712 20.5322 156.098 18.482 156.686 19.7843C157.274 21.0866 155.964 20.1294 153.679 20.0874C151.393 20.0453 149.913 21.4686 150.666 22.6975C151.419 23.9264 150.423 23.6509 148.342 24.0108C146.261 24.3707 150.391 24.8987 148.585 25.1026C146.778 25.3064 146.368 25.9678 146.836 27.2587C147.304 28.5495 150.433 28.1058 151.324 29.454C152.214 30.8023 154.582 30.4828 152.567 31.1677C150.552 31.8525 155.214 33.1323 153.923 34.0034C152.632 34.8746 150.975 33.161 148.924 33.9684C146.874 34.7759 146.863 36.2675 144.812 36.4758C142.761 36.6841 140.763 36.5339 138.68 36.514C136.597 36.4942 134.074 36.8996 135.609 37.8727C137.144 38.8457 134.69 40.356 132.586 40.2874C130.481 40.2187 129.167 39.2169 128.448 38.0408C127.73 36.8647 125.469 36.1405 125.761 34.7004C126.053 33.2603 122.386 32.5854 120.859 32.9356C119.331 33.2858 120.543 34.7797 118.38 34.7525C116.217 34.7253 114.431 35.1169 112.637 35.8276C110.843 36.5383 108.923 36.9694 106.899 37.0311C104.875 37.0928 102.75 36.8843 100.556 36.6846C98.3624 36.485 98.3089 37.3919 96.3765 37.0863C94.4442 36.7807 91.9787 37.5291 90.1988 37.0666C88.4188 36.604 89.7021 36.4524 87.6848 36.7999C85.6675 37.1474 83.8656 38.263 81.8992 37.5805C79.9329 36.8981 76.7062 38.2584 79.0465 38.347C81.3868 38.4356 77.2768 38.9676 75.8904 38.1568C74.5039 37.346 73.1698 38.0926 72.4245 39.2325C71.6793 40.3725 66.4002 38.4831 68.251 39.3323C70.1017 40.1815 67.2253 40.6581 66.385 41.5803C65.5448 42.5024 63.9019 41.5805 64.7895 40.8202C65.6771 40.0599 65.5588 38.5148 63.7549 37.8541C61.951 37.1933 60.2013 36.4931 57.9615 36.7002C55.7215 36.9073 56.7712 34.4559 54.5624 34.329C52.3536 34.2021 51.5566 35.5983 51.201 36.8814C50.8453 38.1644 51.8227 39.5714 50.5381 40.6843C49.2536 41.7973 50.0524 43.4871 48.7409 44.4633C47.4293 45.4396 44.4478 45.5859 43.101 44.6677Z" fill="black"/>
</svg>